<!-- Extracted unchanged from IHATECODING's existing Grok status icon. -->
<svg xmlns="http://www.w3.org/2000/svg" width="24" height="23" viewBox="0 0 24 23">
  <title>Grok</title>
  <path fill="#F2F2F2" d="M4.94 4.96A9.97 9.97 0 0 1 15.775 2.778A8.7 8.7 0 0 1 17.808 3.888L14.802 5.278C12.003 4.101 8.797 4.9 6.84 6.86C4.276 9.425 3.694 13.814 6.48 16.782L6.758 17.066L0.124 23C1.999 21.027 3.895 18.573 2.76 15.81C1.24 12.112 2.125 7.78 4.94 4.96M23.9 0.1C21.636 3.274 20.716 5.489 21.703 9.74L21.696 9.733C22.449 12.934 21.644 16.483 19.043 19.088C15.764 22.373 10.517 23.104 6.196 20.148L9.21 18.75C11.968 19.834 14.985 19.357 17.153 17.186C19.322 15.016 19.808 11.854 18.719 9.223C18.512 8.723 17.891 8.598 17.456 8.919L8.59 15.472L21.29 2.702V2.712Z"/>
</svg>
